<mxfile host="app.diagrams.net" modified="2021-06-07T01:28:10.532Z" agent="5.0 (Windows NT 10.0; Win64; x64) AppleWebKit/537.36 (KHTML, like Gecko) Chrome/89.0.4389.128 Safari/537.36 OPR/75.0.3969.282" etag="LpuadS0bORP6Rd0THloR" version="14.7.6" type="github" pages="2">
  <diagram id="WklP1ezmNH_kU7zZpK8Q" name="Contexto">
    <mxGraphModel dx="1381" dy="764" grid="1" gridSize="10" guides="1" tooltips="1" connect="1" arrows="1" fold="1" page="1" pageScale="1" pageWidth="827" pageHeight="1169" math="0" shadow="0">
      <root>
        <mxCell id="0" />
        <mxCell id="1" parent="0" />
        <mxCell id="Mma5UvzlVPMSAuRfQYA2-21" style="edgeStyle=orthogonalEdgeStyle;rounded=0;orthogonalLoop=1;jettySize=auto;html=1;exitX=0.5;exitY=1;exitDx=0;exitDy=0;exitPerimeter=0;entryX=0.25;entryY=0;entryDx=0;entryDy=0;entryPerimeter=0;" parent="1" source="Mma5UvzlVPMSAuRfQYA2-23" target="Mma5UvzlVPMSAuRfQYA2-28" edge="1">
          <mxGeometry relative="1" as="geometry" />
        </mxCell>
        <mxCell id="Mma5UvzlVPMSAuRfQYA2-22" value="Gestionar la categorización&lt;br&gt;&amp;nbsp;y productos&amp;nbsp;" style="edgeLabel;html=1;align=center;verticalAlign=middle;resizable=0;points=[];" parent="Mma5UvzlVPMSAuRfQYA2-21" vertex="1" connectable="0">
          <mxGeometry x="-0.4502" y="18" relative="1" as="geometry">
            <mxPoint x="-5" y="18" as="offset" />
          </mxGeometry>
        </mxCell>
        <mxCell id="Mma5UvzlVPMSAuRfQYA2-23" value="&lt;b&gt;Administrador&lt;br&gt;&lt;/b&gt;&lt;br&gt;Persona designada&amp;nbsp;&lt;br&gt;a gestionar&lt;br&gt;el sistema." style="html=1;dashed=0;whitespace=wrap;fillColor=#144BFF;strokeColor=#6C8EBF;shape=mxgraph.c4.person;align=center;points=[[0.5,0,0],[1,0.5,0],[1,0.75,0],[0.75,1,0],[0.5,1,0],[0.25,1,0],[0,0.75,0],[0,0.5,0]];" parent="1" vertex="1">
          <mxGeometry x="250" y="110" width="110.00000000000001" height="140" as="geometry" />
        </mxCell>
        <mxCell id="Mma5UvzlVPMSAuRfQYA2-24" style="edgeStyle=orthogonalEdgeStyle;rounded=0;orthogonalLoop=1;jettySize=auto;html=1;exitX=1;exitY=0.25;exitDx=0;exitDy=0;exitPerimeter=0;dashed=1;startArrow=classic;startFill=1;endArrow=none;endFill=0;entryX=0;entryY=0.25;entryDx=0;entryDy=0;entryPerimeter=0;" parent="1" source="Mma5UvzlVPMSAuRfQYA2-28" target="Mma5UvzlVPMSAuRfQYA2-34" edge="1">
          <mxGeometry relative="1" as="geometry">
            <mxPoint x="500" y="415" as="sourcePoint" />
            <mxPoint x="650" y="415" as="targetPoint" />
          </mxGeometry>
        </mxCell>
        <mxCell id="Mma5UvzlVPMSAuRfQYA2-25" value="Obtener información&lt;br&gt;de productos" style="edgeLabel;html=1;align=center;verticalAlign=middle;resizable=0;points=[];" parent="Mma5UvzlVPMSAuRfQYA2-24" vertex="1" connectable="0">
          <mxGeometry x="-0.2364" y="2" relative="1" as="geometry">
            <mxPoint x="13" y="2" as="offset" />
          </mxGeometry>
        </mxCell>
        <mxCell id="Mma5UvzlVPMSAuRfQYA2-26" style="edgeStyle=orthogonalEdgeStyle;rounded=0;orthogonalLoop=1;jettySize=auto;html=1;exitX=0;exitY=0.5;exitDx=0;exitDy=0;exitPerimeter=0;entryX=1;entryY=0.5;entryDx=0;entryDy=0;entryPerimeter=0;dashed=1;" parent="1" source="Mma5UvzlVPMSAuRfQYA2-28" target="Mma5UvzlVPMSAuRfQYA2-37" edge="1">
          <mxGeometry relative="1" as="geometry" />
        </mxCell>
        <mxCell id="Mma5UvzlVPMSAuRfQYA2-44" style="edgeStyle=orthogonalEdgeStyle;rounded=0;orthogonalLoop=1;jettySize=auto;html=1;exitX=1;exitY=0.75;exitDx=0;exitDy=0;exitPerimeter=0;entryX=0;entryY=0.75;entryDx=0;entryDy=0;entryPerimeter=0;" parent="1" source="Mma5UvzlVPMSAuRfQYA2-28" target="Mma5UvzlVPMSAuRfQYA2-34" edge="1">
          <mxGeometry relative="1" as="geometry" />
        </mxCell>
        <mxCell id="Mma5UvzlVPMSAuRfQYA2-28" value="&lt;b&gt;ALICAN&lt;/b&gt;&lt;div&gt;[Software System]&lt;/div&gt;&lt;br&gt;&lt;div&gt;Realiza búsquedas de productos en diferentes paginas web a través de web scraping&lt;/div&gt;" style="rounded=1;whiteSpace=wrap;html=1;labelBackgroundColor=none;fillColor=#004C99;fontColor=#000000;align=center;arcSize=10;strokeColor=#6c8ebf;points=[[0.25,0,0],[0.5,0,0],[0.75,0,0],[1,0.25,0],[1,0.5,0],[1,0.75,0],[0.75,1,0],[0.5,1,0],[0.25,1,0],[0,0.75,0],[0,0.5,0],[0,0.25,0]];gradientColor=none;" parent="1" vertex="1">
          <mxGeometry x="340" y="360" width="160" height="110.00000000000001" as="geometry" />
        </mxCell>
        <mxCell id="Mma5UvzlVPMSAuRfQYA2-29" style="edgeStyle=orthogonalEdgeStyle;rounded=0;orthogonalLoop=1;jettySize=auto;html=1;exitX=0.5;exitY=1;exitDx=0;exitDy=0;exitPerimeter=0;entryX=0.75;entryY=0;entryDx=0;entryDy=0;entryPerimeter=0;" parent="1" source="Mma5UvzlVPMSAuRfQYA2-31" target="Mma5UvzlVPMSAuRfQYA2-28" edge="1">
          <mxGeometry relative="1" as="geometry" />
        </mxCell>
        <mxCell id="Mma5UvzlVPMSAuRfQYA2-30" value="Encontrar productos en diferentes &lt;br&gt;paginas web" style="edgeLabel;html=1;align=center;verticalAlign=middle;resizable=0;points=[];" parent="Mma5UvzlVPMSAuRfQYA2-29" vertex="1" connectable="0">
          <mxGeometry x="0.1815" relative="1" as="geometry">
            <mxPoint x="13" y="-10" as="offset" />
          </mxGeometry>
        </mxCell>
        <mxCell id="Mma5UvzlVPMSAuRfQYA2-31" value="&lt;b&gt;Usuario&lt;/b&gt;&lt;br&gt;Persona que accede&lt;br&gt;al sistema para&amp;nbsp;&lt;br&gt;buscar productos" style="html=1;dashed=0;whitespace=wrap;fillColor=#144BFF;strokeColor=#6C8EBF;shape=mxgraph.c4.person;align=center;points=[[0.5,0,0],[1,0.5,0],[1,0.75,0],[0.75,1,0],[0.5,1,0],[0.25,1,0],[0,0.75,0],[0,0.5,0]];" parent="1" vertex="1">
          <mxGeometry x="510" y="120" width="120" height="140" as="geometry" />
        </mxCell>
        <mxCell id="Mma5UvzlVPMSAuRfQYA2-34" value="&lt;b&gt;Paginas web de venta de productos&lt;/b&gt;&lt;br&gt;&lt;div&gt;[Software System]&lt;/div&gt;&lt;br&gt;&lt;div&gt;Paginas que mantienen la información de productos que será obtenida mediante web scraping&amp;nbsp;&lt;/div&gt;" style="rounded=1;whiteSpace=wrap;html=1;labelBackgroundColor=none;fillColor=#dae8fc;fontColor=#000000;align=center;arcSize=10;strokeColor=#6c8ebf;points=[[0.25,0,0],[0.5,0,0],[0.75,0,0],[1,0.25,0],[1,0.5,0],[1,0.75,0],[0.75,1,0],[0.5,1,0],[0.25,1,0],[0,0.75,0],[0,0.5,0],[0,0.25,0]];" parent="1" vertex="1">
          <mxGeometry x="650" y="360" width="160" height="110.00000000000001" as="geometry" />
        </mxCell>
        <mxCell id="Mma5UvzlVPMSAuRfQYA2-35" style="edgeStyle=orthogonalEdgeStyle;rounded=0;orthogonalLoop=1;jettySize=auto;html=1;exitX=0.5;exitY=0;exitDx=0;exitDy=0;exitPerimeter=0;entryX=0.5;entryY=0;entryDx=0;entryDy=0;entryPerimeter=0;dashed=1;" parent="1" source="Mma5UvzlVPMSAuRfQYA2-37" target="Mma5UvzlVPMSAuRfQYA2-31" edge="1">
          <mxGeometry relative="1" as="geometry" />
        </mxCell>
        <mxCell id="Mma5UvzlVPMSAuRfQYA2-36" value="Enviar notificaciones &lt;br&gt;y correos de verificación" style="edgeLabel;html=1;align=center;verticalAlign=middle;resizable=0;points=[];" parent="Mma5UvzlVPMSAuRfQYA2-35" vertex="1" connectable="0">
          <mxGeometry x="-0.7353" y="4" relative="1" as="geometry">
            <mxPoint as="offset" />
          </mxGeometry>
        </mxCell>
        <mxCell id="Mma5UvzlVPMSAuRfQYA2-37" value="&lt;b&gt;Sistema para envio de email&lt;/b&gt;&lt;br&gt;&lt;div&gt;[Software System]&lt;/div&gt;&lt;br&gt;&lt;div&gt;Sistema que permitirá enviar notificaciones a los usuarios cuando un producto tenga el &quot;precio ideal&quot;&lt;/div&gt;" style="rounded=1;whiteSpace=wrap;html=1;labelBackgroundColor=none;fillColor=#dae8fc;fontColor=#000000;align=center;arcSize=10;strokeColor=#6c8ebf;points=[[0.25,0,0],[0.5,0,0],[0.75,0,0],[1,0.25,0],[1,0.5,0],[1,0.75,0],[0.75,1,0],[0.5,1,0],[0.25,1,0],[0,0.75,0],[0,0.5,0],[0,0.25,0]];" parent="1" vertex="1">
          <mxGeometry x="20" y="360" width="160" height="110.00000000000001" as="geometry" />
        </mxCell>
        <mxCell id="Mma5UvzlVPMSAuRfQYA2-39" value="Enviar Correo &lt;br&gt;electrónico" style="text;html=1;align=center;verticalAlign=middle;resizable=0;points=[];autosize=1;dashed=1;" parent="1" vertex="1">
          <mxGeometry x="220" y="405" width="90" height="30" as="geometry" />
        </mxCell>
        <mxCell id="Mma5UvzlVPMSAuRfQYA2-41" value="&lt;b&gt;&lt;font style=&quot;font-size: 21px&quot;&gt;NIVEL DE CONTEXTO&lt;/font&gt;&lt;/b&gt;" style="text;html=1;align=center;verticalAlign=middle;resizable=0;points=[];autosize=1;" parent="1" vertex="1">
          <mxGeometry x="279" y="60" width="230" height="20" as="geometry" />
        </mxCell>
        <mxCell id="Mma5UvzlVPMSAuRfQYA2-45" value="Redireccionar a&amp;nbsp;&lt;br&gt;la página" style="edgeLabel;html=1;align=center;verticalAlign=middle;resizable=0;points=[];" parent="1" vertex="1" connectable="0">
          <mxGeometry x="540" y="440" as="geometry">
            <mxPoint x="24" y="-4" as="offset" />
          </mxGeometry>
        </mxCell>
      </root>
    </mxGraphModel>
  </diagram>
  <diagram id="Ib9bIaJ14_G0zzwW2hQr" name="Contenedor">
    <mxGraphModel dx="2208" dy="764" grid="1" gridSize="10" guides="1" tooltips="1" connect="1" arrows="1" fold="1" page="1" pageScale="1" pageWidth="827" pageHeight="1169" math="0" shadow="0">
      <root>
        <mxCell id="hYaUaqqQDeKtbW0Ks_rJ-0" />
        <mxCell id="hYaUaqqQDeKtbW0Ks_rJ-1" parent="hYaUaqqQDeKtbW0Ks_rJ-0" />
        <mxCell id="U2fasIZHY0Myd1p3PCVR-0" style="edgeStyle=orthogonalEdgeStyle;rounded=0;orthogonalLoop=1;jettySize=auto;html=1;exitX=0.5;exitY=1;exitDx=0;exitDy=0;exitPerimeter=0;entryX=0.5;entryY=0;entryDx=0;entryDy=0;entryPerimeter=0;dashed=1;" parent="hYaUaqqQDeKtbW0Ks_rJ-1" source="U2fasIZHY0Myd1p3PCVR-2" target="U2fasIZHY0Myd1p3PCVR-26" edge="1">
          <mxGeometry relative="1" as="geometry">
            <mxPoint x="340" y="360" as="targetPoint" />
            <Array as="points">
              <mxPoint x="340" y="260" />
              <mxPoint x="340" y="420" />
            </Array>
          </mxGeometry>
        </mxCell>
        <mxCell id="U2fasIZHY0Myd1p3PCVR-1" value="Gestionar la categorización&lt;br&gt;&amp;nbsp;y productos&amp;nbsp;" style="edgeLabel;html=1;align=center;verticalAlign=middle;resizable=0;points=[];" parent="U2fasIZHY0Myd1p3PCVR-0" vertex="1" connectable="0">
          <mxGeometry x="-0.4502" y="18" relative="1" as="geometry">
            <mxPoint x="19" y="58" as="offset" />
          </mxGeometry>
        </mxCell>
        <mxCell id="U2fasIZHY0Myd1p3PCVR-2" value="&lt;b&gt;Administrador&lt;br&gt;&lt;/b&gt;&lt;br&gt;Persona designada&amp;nbsp;&lt;br&gt;a gestionar&lt;br&gt;el sistema." style="html=1;dashed=0;whitespace=wrap;fillColor=#144BFF;strokeColor=#6C8EBF;shape=mxgraph.c4.person;align=center;points=[[0.5,0,0],[1,0.5,0],[1,0.75,0],[0.75,1,0],[0.5,1,0],[0.25,1,0],[0,0.75,0],[0,0.5,0]];" parent="hYaUaqqQDeKtbW0Ks_rJ-1" vertex="1">
          <mxGeometry x="279" y="120" width="110.00000000000001" height="140" as="geometry" />
        </mxCell>
        <mxCell id="U2fasIZHY0Myd1p3PCVR-3" style="edgeStyle=orthogonalEdgeStyle;rounded=0;orthogonalLoop=1;jettySize=auto;html=1;exitX=1;exitY=0.75;exitDx=0;exitDy=0;exitPerimeter=0;dashed=1;startArrow=classic;startFill=1;endArrow=none;endFill=0;entryX=0;entryY=0.75;entryDx=0;entryDy=0;entryPerimeter=0;" parent="hYaUaqqQDeKtbW0Ks_rJ-1" source="U2fasIZHY0Myd1p3PCVR-29" target="U2fasIZHY0Myd1p3PCVR-11" edge="1">
          <mxGeometry relative="1" as="geometry">
            <mxPoint x="740" y="387.5" as="sourcePoint" />
            <mxPoint x="1050" y="620" as="targetPoint" />
          </mxGeometry>
        </mxCell>
        <mxCell id="U2fasIZHY0Myd1p3PCVR-4" value="Obtener información&lt;br&gt;de productos" style="edgeLabel;html=1;align=center;verticalAlign=middle;resizable=0;points=[];" parent="U2fasIZHY0Myd1p3PCVR-3" vertex="1" connectable="0">
          <mxGeometry x="-0.2364" y="2" relative="1" as="geometry">
            <mxPoint x="-48" y="25" as="offset" />
          </mxGeometry>
        </mxCell>
        <mxCell id="U2fasIZHY0Myd1p3PCVR-5" style="edgeStyle=orthogonalEdgeStyle;rounded=0;orthogonalLoop=1;jettySize=auto;html=1;entryX=1;entryY=0.5;entryDx=0;entryDy=0;entryPerimeter=0;dashed=1;exitX=0;exitY=0.25;exitDx=0;exitDy=0;exitPerimeter=0;" parent="hYaUaqqQDeKtbW0Ks_rJ-1" source="U2fasIZHY0Myd1p3PCVR-29" target="U2fasIZHY0Myd1p3PCVR-14" edge="1">
          <mxGeometry relative="1" as="geometry">
            <mxPoint x="100" y="425" as="sourcePoint" />
            <Array as="points">
              <mxPoint x="350" y="608" />
              <mxPoint x="350" y="560" />
              <mxPoint x="130" y="560" />
              <mxPoint x="130" y="500" />
            </Array>
          </mxGeometry>
        </mxCell>
        <mxCell id="U2fasIZHY0Myd1p3PCVR-6" style="edgeStyle=orthogonalEdgeStyle;rounded=0;orthogonalLoop=1;jettySize=auto;html=1;exitX=1;exitY=0.5;exitDx=0;exitDy=0;exitPerimeter=0;entryX=0;entryY=0.25;entryDx=0;entryDy=0;entryPerimeter=0;dashed=1;" parent="hYaUaqqQDeKtbW0Ks_rJ-1" source="U2fasIZHY0Myd1p3PCVR-24" target="U2fasIZHY0Myd1p3PCVR-11" edge="1">
          <mxGeometry relative="1" as="geometry">
            <mxPoint x="740" y="442.5" as="sourcePoint" />
          </mxGeometry>
        </mxCell>
        <mxCell id="U2fasIZHY0Myd1p3PCVR-8" style="edgeStyle=orthogonalEdgeStyle;rounded=0;orthogonalLoop=1;jettySize=auto;html=1;exitX=0.5;exitY=1;exitDx=0;exitDy=0;exitPerimeter=0;entryX=0.5;entryY=0;entryDx=0;entryDy=0;entryPerimeter=0;dashed=1;" parent="hYaUaqqQDeKtbW0Ks_rJ-1" source="U2fasIZHY0Myd1p3PCVR-10" target="U2fasIZHY0Myd1p3PCVR-24" edge="1">
          <mxGeometry relative="1" as="geometry">
            <mxPoint x="460" y="360" as="targetPoint" />
          </mxGeometry>
        </mxCell>
        <mxCell id="U2fasIZHY0Myd1p3PCVR-9" value="Encontrar productos en &lt;br&gt;diferentes&amp;nbsp;paginas web." style="edgeLabel;html=1;align=center;verticalAlign=middle;resizable=0;points=[];" parent="U2fasIZHY0Myd1p3PCVR-8" vertex="1" connectable="0">
          <mxGeometry x="0.1815" relative="1" as="geometry">
            <mxPoint x="-16" y="20" as="offset" />
          </mxGeometry>
        </mxCell>
        <mxCell id="U2fasIZHY0Myd1p3PCVR-10" value="&lt;b&gt;Usuario&lt;/b&gt;&lt;br&gt;Persona que accede&lt;br&gt;al sistema para&amp;nbsp;&lt;br&gt;buscar productos" style="html=1;dashed=0;whitespace=wrap;fillColor=#144BFF;strokeColor=#6C8EBF;shape=mxgraph.c4.person;align=center;points=[[0.5,0,0],[1,0.5,0],[1,0.75,0],[0.75,1,0],[0.5,1,0],[0.25,1,0],[0,0.75,0],[0,0.5,0]];" parent="hYaUaqqQDeKtbW0Ks_rJ-1" vertex="1">
          <mxGeometry x="550" y="120" width="120" height="140" as="geometry" />
        </mxCell>
        <mxCell id="U2fasIZHY0Myd1p3PCVR-11" value="&lt;b&gt;Paginas web de venta de productos&lt;/b&gt;&lt;br&gt;&lt;div&gt;[Software System]&lt;/div&gt;&lt;br&gt;&lt;div&gt;Paginas que mantienen la información de productos que será obtenida mediante web scraping&amp;nbsp;&lt;/div&gt;" style="rounded=1;whiteSpace=wrap;html=1;labelBackgroundColor=none;fillColor=#dae8fc;fontColor=#000000;align=center;arcSize=10;strokeColor=#6c8ebf;points=[[0.25,0,0],[0.5,0,0],[0.75,0,0],[1,0.25,0],[1,0.5,0],[1,0.75,0],[0.75,1,0],[0.5,1,0],[0.25,1,0],[0,0.75,0],[0,0.5,0],[0,0.25,0]];" parent="hYaUaqqQDeKtbW0Ks_rJ-1" vertex="1">
          <mxGeometry x="900" y="430" width="160" height="110.00000000000001" as="geometry" />
        </mxCell>
        <mxCell id="U2fasIZHY0Myd1p3PCVR-12" style="edgeStyle=orthogonalEdgeStyle;rounded=0;orthogonalLoop=1;jettySize=auto;html=1;exitX=0.5;exitY=0;exitDx=0;exitDy=0;exitPerimeter=0;entryX=0.5;entryY=0;entryDx=0;entryDy=0;entryPerimeter=0;dashed=1;" parent="hYaUaqqQDeKtbW0Ks_rJ-1" source="U2fasIZHY0Myd1p3PCVR-14" target="U2fasIZHY0Myd1p3PCVR-10" edge="1">
          <mxGeometry relative="1" as="geometry" />
        </mxCell>
        <mxCell id="U2fasIZHY0Myd1p3PCVR-13" value="Enviar notificaciones &lt;br&gt;y correos de verificación" style="edgeLabel;html=1;align=center;verticalAlign=middle;resizable=0;points=[];" parent="U2fasIZHY0Myd1p3PCVR-12" vertex="1" connectable="0">
          <mxGeometry x="-0.7353" y="4" relative="1" as="geometry">
            <mxPoint as="offset" />
          </mxGeometry>
        </mxCell>
        <mxCell id="U2fasIZHY0Myd1p3PCVR-14" value="&lt;b&gt;Sistema para envio de email&lt;/b&gt;&lt;br&gt;&lt;div&gt;[Software System]&lt;/div&gt;&lt;br&gt;&lt;div&gt;Sistema que permitirá enviar notificaciones a los usuarios cuando un producto tenga el &quot;precio ideal&quot;&lt;/div&gt;" style="rounded=1;whiteSpace=wrap;html=1;labelBackgroundColor=none;fillColor=#dae8fc;fontColor=#000000;align=center;arcSize=10;strokeColor=#6c8ebf;points=[[0.25,0,0],[0.5,0,0],[0.75,0,0],[1,0.25,0],[1,0.5,0],[1,0.75,0],[0.75,1,0],[0.5,1,0],[0.25,1,0],[0,0.75,0],[0,0.5,0],[0,0.25,0]];" parent="hYaUaqqQDeKtbW0Ks_rJ-1" vertex="1">
          <mxGeometry x="-220" y="445" width="160" height="110.00000000000001" as="geometry" />
        </mxCell>
        <mxCell id="U2fasIZHY0Myd1p3PCVR-15" value="Enviar Correo electrónico" style="text;html=1;align=center;verticalAlign=middle;resizable=0;points=[];autosize=1;dashed=1;" parent="hYaUaqqQDeKtbW0Ks_rJ-1" vertex="1">
          <mxGeometry x="-20" y="465" width="150" height="20" as="geometry" />
        </mxCell>
        <mxCell id="U2fasIZHY0Myd1p3PCVR-18" value="&lt;b&gt;&lt;font style=&quot;font-size: 21px&quot;&gt;NIVEL DE CONTENEDORES&lt;/font&gt;&lt;/b&gt;" style="text;html=1;align=center;verticalAlign=middle;resizable=0;points=[];autosize=1;" parent="hYaUaqqQDeKtbW0Ks_rJ-1" vertex="1">
          <mxGeometry x="254" y="30" width="300" height="20" as="geometry" />
        </mxCell>
        <mxCell id="U2fasIZHY0Myd1p3PCVR-21" value="" style="rounded=1;arcSize=10;dashed=1;strokeColor=#000000;fillColor=none;gradientColor=none;dashPattern=8 3 1 3;strokeWidth=2;" parent="hYaUaqqQDeKtbW0Ks_rJ-1" vertex="1">
          <mxGeometry x="160" y="380" width="560" height="350" as="geometry" />
        </mxCell>
        <mxCell id="U2fasIZHY0Myd1p3PCVR-22" style="edgeStyle=orthogonalEdgeStyle;rounded=0;orthogonalLoop=1;jettySize=auto;html=1;exitX=0.5;exitY=1;exitDx=0;exitDy=0;exitPerimeter=0;entryX=1;entryY=0.5;entryDx=0;entryDy=0;entryPerimeter=0;dashed=1;" parent="hYaUaqqQDeKtbW0Ks_rJ-1" source="U2fasIZHY0Myd1p3PCVR-24" target="U2fasIZHY0Myd1p3PCVR-29" edge="1">
          <mxGeometry relative="1" as="geometry" />
        </mxCell>
        <mxCell id="U2fasIZHY0Myd1p3PCVR-23" value="Https" style="edgeLabel;html=1;align=center;verticalAlign=middle;resizable=0;points=[];" parent="U2fasIZHY0Myd1p3PCVR-22" vertex="1" connectable="0">
          <mxGeometry x="-0.2933" relative="1" as="geometry">
            <mxPoint as="offset" />
          </mxGeometry>
        </mxCell>
        <mxCell id="WbnE8c-FuxY_hJp1iob6-0" value="Consumo de servicios" style="edgeLabel;html=1;align=center;verticalAlign=middle;resizable=0;points=[];" parent="U2fasIZHY0Myd1p3PCVR-22" vertex="1" connectable="0">
          <mxGeometry x="0.0133" y="2" relative="1" as="geometry">
            <mxPoint x="-2" y="-44" as="offset" />
          </mxGeometry>
        </mxCell>
        <mxCell id="U2fasIZHY0Myd1p3PCVR-24" value="&lt;span&gt;&lt;b&gt;Aplicación web&lt;/b&gt;&lt;/span&gt;&lt;br&gt;&lt;div&gt;[Container: React js - Javascript(jsx)&lt;span&gt;]&lt;/span&gt;&lt;/div&gt;&lt;br&gt;Permite a los usuarios realizar busquedas de productos en diferentes paginas.&amp;nbsp;" style="rounded=1;whiteSpace=wrap;html=1;labelBackgroundColor=none;fillColor=#dae8fc;fontColor=#000000;align=center;arcSize=10;strokeColor=#6c8ebf;points=[[0.25,0,0],[0.5,0,0],[0.75,0,0],[1,0.25,0],[1,0.5,0],[1,0.75,0],[0.75,1,0],[0.5,1,0],[0.25,1,0],[0,0.75,0],[0,0.5,0],[0,0.25,0]];" parent="hYaUaqqQDeKtbW0Ks_rJ-1" vertex="1">
          <mxGeometry x="520" y="410" width="180" height="110" as="geometry" />
        </mxCell>
        <mxCell id="U2fasIZHY0Myd1p3PCVR-25" style="edgeStyle=orthogonalEdgeStyle;rounded=0;orthogonalLoop=1;jettySize=auto;html=1;exitX=1;exitY=0.5;exitDx=0;exitDy=0;exitPerimeter=0;entryX=0.5;entryY=0;entryDx=0;entryDy=0;entryPerimeter=0;dashed=1;" parent="hYaUaqqQDeKtbW0Ks_rJ-1" source="U2fasIZHY0Myd1p3PCVR-26" target="U2fasIZHY0Myd1p3PCVR-29" edge="1">
          <mxGeometry relative="1" as="geometry">
            <Array as="points">
              <mxPoint x="460" y="475" />
              <mxPoint x="460" y="580" />
            </Array>
          </mxGeometry>
        </mxCell>
        <mxCell id="U2fasIZHY0Myd1p3PCVR-26" value="&lt;span&gt;&lt;b&gt;Aplicación web&lt;/b&gt;&lt;/span&gt;&lt;br&gt;&lt;div&gt;[Container:&amp;nbsp;&lt;span&gt;DJango- python&lt;/span&gt;&lt;span&gt;]&lt;/span&gt;&lt;/div&gt;&lt;br&gt;Permite al administrador, gestionar las categorias y productos dentro del sistema." style="rounded=1;whiteSpace=wrap;html=1;labelBackgroundColor=none;fillColor=#dae8fc;fontColor=#000000;align=center;arcSize=10;strokeColor=#6c8ebf;points=[[0.25,0,0],[0.5,0,0],[0.75,0,0],[1,0.25,0],[1,0.5,0],[1,0.75,0],[0.75,1,0],[0.5,1,0],[0.25,1,0],[0,0.75,0],[0,0.5,0],[0,0.25,0]];" parent="hYaUaqqQDeKtbW0Ks_rJ-1" vertex="1">
          <mxGeometry x="254" y="420" width="160" height="110.00000000000001" as="geometry" />
        </mxCell>
        <mxCell id="U2fasIZHY0Myd1p3PCVR-27" style="edgeStyle=orthogonalEdgeStyle;rounded=0;orthogonalLoop=1;jettySize=auto;html=1;exitX=0;exitY=0.5;exitDx=0;exitDy=0;exitPerimeter=0;entryX=1;entryY=0.5;entryDx=0;entryDy=0;entryPerimeter=0;dashed=1;" parent="hYaUaqqQDeKtbW0Ks_rJ-1" source="U2fasIZHY0Myd1p3PCVR-29" target="U2fasIZHY0Myd1p3PCVR-30" edge="1">
          <mxGeometry relative="1" as="geometry" />
        </mxCell>
        <mxCell id="U2fasIZHY0Myd1p3PCVR-28" value="lee y&lt;br&gt;escribe&amp;nbsp;&lt;br&gt;registros" style="edgeLabel;html=1;align=center;verticalAlign=middle;resizable=0;points=[];" parent="U2fasIZHY0Myd1p3PCVR-27" vertex="1" connectable="0">
          <mxGeometry x="0.3519" y="-1" relative="1" as="geometry">
            <mxPoint x="9" y="1" as="offset" />
          </mxGeometry>
        </mxCell>
        <mxCell id="U2fasIZHY0Myd1p3PCVR-29" value="&lt;span&gt;&lt;b&gt;API&lt;/b&gt;&lt;/span&gt;&lt;br&gt;&lt;div&gt;[Container:&amp;nbsp;&lt;span&gt;DJango-python&lt;/span&gt;&lt;span&gt;]&lt;/span&gt;&lt;/div&gt;&lt;br&gt;Provee servicios a la aplicación, contiene los modelos del sistema." style="rounded=1;whiteSpace=wrap;html=1;labelBackgroundColor=none;fillColor=#dae8fc;fontColor=#000000;align=center;arcSize=10;strokeColor=#6c8ebf;points=[[0.25,0,0],[0.5,0,0],[0.75,0,0],[1,0.25,0],[1,0.5,0],[1,0.75,0],[0.75,1,0],[0.5,1,0],[0.25,1,0],[0,0.75,0],[0,0.5,0],[0,0.25,0]];" parent="hYaUaqqQDeKtbW0Ks_rJ-1" vertex="1">
          <mxGeometry x="400" y="580" width="160" height="110.00000000000001" as="geometry" />
        </mxCell>
        <mxCell id="U2fasIZHY0Myd1p3PCVR-30" value="&lt;span&gt;Database&lt;/span&gt;&lt;div&gt;[Container:&amp;nbsp;MonoDB]&lt;/div&gt;&lt;br&gt;&lt;div&gt;Almacenamiento de los usuarios de la aplicación&lt;br&gt;, scraping y datos de productos&amp;nbsp;&lt;/div&gt;" style="shape=cylinder;whiteSpace=wrap;html=1;boundedLbl=1;rounded=0;labelBackgroundColor=none;fillColor=#dae8fc;fontSize=12;fontColor=#000000;align=center;strokeColor=#6c8ebf;points=[[0.5,0,0],[1,0.25,0],[1,0.5,0],[1,0.75,0],[0.5,1,0],[0,0.75,0],[0,0.5,0],[0,0.25,0]];" parent="hYaUaqqQDeKtbW0Ks_rJ-1" vertex="1">
          <mxGeometry x="170" y="580" width="140" height="120" as="geometry" />
        </mxCell>
        <mxCell id="U2fasIZHY0Myd1p3PCVR-31" value="lee y&lt;br&gt;escribe&amp;nbsp;&lt;br&gt;registros" style="edgeLabel;html=1;align=center;verticalAlign=middle;resizable=0;points=[];" parent="hYaUaqqQDeKtbW0Ks_rJ-1" vertex="1" connectable="0">
          <mxGeometry x="240" y="500" as="geometry">
            <mxPoint x="228" y="13" as="offset" />
          </mxGeometry>
        </mxCell>
        <mxCell id="q8Rf-5-u7_gqddnj4oZC-4" value="Redirección página web" style="text;html=1;align=center;verticalAlign=middle;resizable=0;points=[];autosize=1;strokeColor=none;" vertex="1" parent="hYaUaqqQDeKtbW0Ks_rJ-1">
          <mxGeometry x="740" y="430" width="140" height="20" as="geometry" />
        </mxCell>
      </root>
    </mxGraphModel>
  </diagram>
</mxfile>
